<?xml version="1.0" encoding="UTF-8" standalone="no"?>
<!-- Created with Inkscape (http://www.inkscape.org/) -->

<svg
   xmlns:dc="http://purl.org/dc/elements/1.1/"
   xmlns:cc="http://creativecommons.org/ns#"
   xmlns:rdf="http://www.w3.org/1999/02/22-rdf-syntax-ns#"
   xmlns:svg="http://www.w3.org/2000/svg"
   xmlns="http://www.w3.org/2000/svg"
   xmlns:sodipodi="http://sodipodi.sourceforge.net/DTD/sodipodi-0.dtd"
   xmlns:inkscape="http://www.inkscape.org/namespaces/inkscape"
   width="1089.2076mm"
   height="109.44543mm"
   viewBox="0 0 3859.397 387.79875"
   id="svg2"
   version="1.1"
   inkscape:version="0.91 r13725"
   sodipodi:docname="shapes.svg">
  <defs
     id="defs4" />
  <sodipodi:namedview
     id="base"
     pagecolor="#ffffff"
     bordercolor="#666666"
     borderopacity="1.0"
     inkscape:pageopacity="0.0"
     inkscape:pageshadow="2"
     inkscape:zoom="0.22627417"
     inkscape:cx="2681.9253"
     inkscape:cy="203.94814"
     inkscape:document-units="px"
     inkscape:current-layer="layer1"
     showgrid="false"
     inkscape:window-width="1440"
     inkscape:window-height="868"
     inkscape:window-x="1361"
     inkscape:window-y="-5"
     inkscape:window-maximized="1"
     fit-margin-top="0"
     fit-margin-left="0"
     fit-margin-right="0"
     fit-margin-bottom="0"
     showborder="false"
     inkscape:showpageshadow="false">
    <inkscape:grid
       type="xygrid"
       id="grid4136"
       originx="-190.64646"
       originy="-287.76145" />
  </sodipodi:namedview>
  <metadata
     id="metadata7">
    <rdf:RDF>
      <cc:Work
         rdf:about="">
        <dc:format>image/svg+xml</dc:format>
        <dc:type
           rdf:resource="http://purl.org/dc/dcmitype/StillImage" />
        <dc:title></dc:title>
      </cc:Work>
    </rdf:RDF>
  </metadata>
  <g
     inkscape:label="Layer 1"
     inkscape:groupmode="layer"
     id="layer1"
     transform="translate(-190.64648,-376.80202)">
    <g
       id="g4474">
      <path
         id="circle5643"
         d="m 313.11914,401.96484 c -47.85155,-0.59253 -92.54855,23.9445 -117.73633,64.63477 l 11.76563,7.2832 c -8.04015,12.94776 -13.7434,27.49315 -16.50196,43.04883 l 7.80664,1.39063 c 9.51975,-53.74882 56.51074,-94.625 112.97461,-94.625 36.90027,0 69.74005,17.46869 90.73438,44.56835 l -5.73242,4.3125 c -19.6605,-25.35034 -50.40453,-41.66406 -85.00196,-41.66406 -52.99285,0 -96.97328,38.24988 -105.87304,88.67188 l 11.55664,2.05664 c -5.36173,30.11944 3.96307,60.9501 25.12109,83.04687 l -8.47851,8.11914 c 19.56613,20.42986 47.12174,33.14453 77.67382,33.14453 21.0474,0 40.6615,-6.05071 57.23243,-16.48437 l -17.08008,-27.16992 c 1.57184,-0.9882 3.10689,-2.03527 4.60156,-3.13672 l 23.3125,31.63867 c -2.27334,1.67526 -4.60733,3.26652 -6.99805,4.76953 l -0.008,-0.0137 c -17.68882,11.15087 -38.62438,17.61328 -61.06055,17.61328 -32.55646,0 -61.96224,-13.59164 -82.85351,-35.40234 l -5.7168,5.47461 c 22.33981,23.32293 53.77958,37.86133 88.57031,37.86133 16.18025,0 31.63232,-3.1512 45.78516,-8.86133 l 5.08984,12.65429 c 29.49528,-11.86578 53.92019,-33.67301 69.03907,-61.64062 l -12.00977,-6.49219 c 9.41438,-17.35523 14.76563,-37.22636 14.76563,-58.33008 0,-3.72137 -0.17634,-7.40137 -0.50196,-11.03906 l 7.26563,-0.74609 -0.1543,-1.5 c -2.41802,-23.53084 -11.21399,-45.95671 -25.4375,-64.85742 l -0.90625,-1.20704 -1.20508,0.90821 -4.66015,3.50586 C 386.3375,434.85153 351.79589,416.26151 312.94727,415.78711 l 0.17187,-13.82227 z m -2.14453,56.19532 c 15.45293,-0.0826 30.68353,4.3097 43.76953,12.69531 l 5.15039,-8.03516 1.32422,-2.0664 0.30273,-0.47461 c 9.89076,6.33951 18.36818,14.42113 25.10547,23.73047 l 24.14258,-17.47071 c -0.15251,-0.21026 -0.30124,-0.42356 -0.45508,-0.63281 l 0.0176,-0.0137 c 0.15416,0.21018 0.30234,0.42369 0.45508,0.63476 l 3.10351,-2.24609 c 12.58421,17.38838 20.5368,37.69406 23.10743,59.00391 l -33.41211,4.03125 c 2.09649,17.37523 -0.77717,34.84124 -8.07617,50.44726 l 13.33789,6.23828 c 6.47504,-13.83336 10.09961,-29.27308 10.09961,-45.56836 0,-3.19897 -0.15205,-6.36191 -0.42969,-9.48828 l 7.17773,-0.73828 c 0.30279,3.36997 0.47071,6.77848 0.47071,10.22656 0,19.74568 -5.00053,38.33287 -13.80079,54.56446 l -6.32226,-3.41602 -4.94141,-2.67187 -8.01953,-4.33399 c -2.92989,5.42005 -6.40724,10.58074 -10.42383,15.38672 l -0.0391,-0.0312 -2.27539,-1.90234 -9.64258,-8.05664 c 3.31795,-3.96995 6.22985,-8.2626 8.68945,-12.81446 l 0.004,0.002 c 15.39502,-28.48947 11.39194,-63.54177 -10.0293,-87.82813 -21.42316,-24.28855 -55.70556,-32.63752 -85.89648,-20.91601 l -1.0918,-2.8125 c 7.84006,-3.04388 15.94598,-4.78461 24.04493,-5.28907 1.51854,-0.0946 3.0366,-0.14619 4.55273,-0.15429 z m 93.00586,12.51172 c 0.003,0.004 0.007,0.008 0.01,0.0117 l -1.46875,1.08594 1.45899,-1.09765 z m -92.55274,3.76367 a 63.998219,63.998219 0 0 1 64,63.99804 63.998219,63.998219 0 0 1 -64,63.99805 63.998219,63.998219 0 0 1 -63.99804,-63.99805 63.998219,63.998219 0 0 1 63.99804,-63.99804 z m -78.76953,23.43945 10.77344,5.54688 c -9.45358,18.35982 -11.08072,39.75522 -4.51367,59.33398 6.56704,19.57876 20.76647,35.66335 39.37891,44.60937 l -5.25,10.92188 c -16.8637,-8.1055 -30.60447,-21.27997 -39.42969,-37.48828 l -2.40821,1.31055 c -6.82819,-12.52274 -10.80663,-26.82478 -11.07421,-42.03711 l 2.71484,-0.0508 c -0.25971,-14.50812 3.04034,-29.00182 9.80859,-42.14648 z"
         style="opacity:1;fill:#000000;fill-opacity:1;fill-rule:evenodd;stroke:none;stroke-width:2.01706886;stroke-linecap:butt;stroke-linejoin:miter;stroke-miterlimit:2;stroke-dasharray:none;stroke-dashoffset:0;stroke-opacity:1"
         inkscape:connector-curvature="0" />
      <circle
         r="40.071396"
         cy="538.43359"
         cx="311.42856"
         id="path4142"
         style="opacity:1;fill:none;fill-opacity:1;fill-rule:evenodd;stroke:#c6c6c6;stroke-width:2.01706886;stroke-linecap:butt;stroke-linejoin:miter;stroke-miterlimit:2;stroke-dasharray:none;stroke-dashoffset:0;stroke-opacity:1" />
    </g>
    <g
       id="g4770"
       transform="translate(157.23983,0)">
      <g
         id="g4468"
         transform="translate(-15,-1)">
        <path
           style="opacity:1;fill:#000000;fill-opacity:1;fill-rule:evenodd;stroke:none;stroke-width:2.01706886;stroke-linecap:butt;stroke-linejoin:miter;stroke-miterlimit:2;stroke-dasharray:none;stroke-dashoffset:0;stroke-opacity:1"
           d="M 486.08203,-24.152344 468.39062,4.6855469 C 435.29891,13.578289 406.24657,34.74166 387.73633,64.644531 l 11.76562,7.283203 C 391.4618,84.875494 385.75856,99.420892 383,114.97656 l 7.80664,1.39063 c 9.51975,-53.748829 56.51074,-94.625002 112.97461,-94.625002 36.90027,0 69.74007,17.468699 90.73437,44.568359 l -5.73242,4.3125 c -19.6605,-25.35034 -50.40452,-41.664063 -85.00195,-41.664063 -52.99285,0 -96.97329,38.249872 -105.87305,88.671876 l 11.55664,2.05664 c -5.36173,30.11944 3.96308,60.95011 25.1211,83.04688 l -8.47852,8.11914 c 19.56613,20.42986 47.12175,33.14453 77.67383,33.14453 21.0474,0 40.66149,-6.05072 57.23242,-16.48438 l -17.08008,-27.16992 c 1.57184,-0.9882 3.1069,-2.03527 4.60157,-3.13672 l 23.3125,31.63867 c -2.27334,1.67526 -4.60733,3.26652 -6.99805,4.76953 l -0.008,-0.0137 c -17.68882,11.15087 -38.62438,17.61328 -61.06055,17.61328 -32.55646,0 -61.96225,-13.59164 -82.85352,-35.40234 l -5.71679,5.47461 c 4.5169,4.71568 9.41158,9.06575 14.625,13.01562 l -12.4336,20.26563 32.83008,20.13867 13.63281,-22.22265 c 1.6902,0.58275 3.39858,1.12664 5.1211,1.63671 l -26.04297,42.45313 32.82812,20.13867 35.45508,-57.79687 c 2.16697,-0.13047 4.31777,-0.31655 6.45313,-0.5586 l -51.62305,84.15039 32.83008,20.13867 63.14648,-102.93554 c 26.1844,-12.37722 47.82327,-32.81043 61.66211,-58.41016 l -12.00976,-6.49219 c 9.41438,-17.35523 14.76562,-37.22635 14.76562,-58.33007 0,-3.72137 -0.17633,-7.40138 -0.50195,-11.03907 l 7.26562,-0.74609 -0.15429,-1.5 C 630.64253,99.662516 621.84656,77.236645 607.62305,58.335938 l -0.90625,-1.207032 -1.20508,0.908203 -4.66016,3.50586 c -3.60867,-4.664896 -7.55079,-9.057558 -11.78125,-13.154297 l 9.9668,-16.246094 -32.82813,-20.138672 -8.71875,14.210938 c -1.50796,-0.736867 -3.03841,-1.433193 -4.58007,-2.109375 L 570.16211,-4.0136719 537.33203,-24.152344 513.78125,14.238281 c -1.94277,-0.15759 -3.90087,-0.257251 -5.86719,-0.326172 L 518.91211,-4.0136719 486.08203,-24.152344 Z m 17.24609,80.357422 c 15.45295,-0.0826 30.68354,4.309703 43.76954,12.695313 l 5.15039,-8.035157 1.32422,-2.066406 0.30273,-0.474609 c 9.89076,6.33951 18.36818,14.421126 25.10547,23.730469 l 24.14258,-17.470704 c -0.15251,-0.21026 -0.30124,-0.423562 -0.45508,-0.632812 l 0.0176,-0.01367 c 0.15416,0.21018 0.30234,0.423696 0.45507,0.634766 l 3.10352,-2.246094 c 12.58421,17.38838 20.53679,37.694056 23.10742,59.003906 l -33.41211,4.03125 c 2.09649,17.37523 -0.77717,34.84124 -8.07617,50.44726 l 13.33789,6.23829 c 6.47504,-13.83336 10.09961,-29.27308 10.09961,-45.56836 0,-3.19897 -0.15205,-6.36192 -0.42969,-9.48829 l 7.17774,-0.73828 c 0.30279,3.36997 0.4707,6.77849 0.4707,10.22657 0,19.74568 -5.00052,38.33286 -13.80078,54.56445 l -6.32227,-3.41602 -4.9414,-2.67187 -8.01953,-4.33399 c -2.92989,5.42005 -6.40724,10.58074 -10.42383,15.38672 l -0.0391,-0.0312 -2.27539,-1.90234 -9.64258,-8.05664 c 3.31795,-3.96995 6.22985,-8.26258 8.68945,-12.81446 l 0.004,0.002 C 587.14314,144.7157 583.14006,109.6634 561.71882,85.377045 540.29566,61.088495 506.01326,52.73952 475.82234,64.46103 l -1.0918,-2.8125 c 7.84006,-3.043881 15.94597,-4.784603 24.04492,-5.289063 1.51854,-0.0946 3.03662,-0.146197 4.55273,-0.154297 z m 93.00586,12.511719 c 0.003,0.004 0.007,0.008 0.01,0.01172 l -1.46875,1.085937 1.45898,-1.097656 z m -92.55273,3.763672 a 63.998219,63.998219 0 0 1 64,63.998051 63.998219,63.998219 0 0 1 -64,63.99804 63.998219,63.998219 0 0 1 -63.99805,-63.99804 63.998219,63.998219 0 0 1 63.99805,-63.998051 z m -78.76953,23.439453 10.77344,5.546878 c -9.45358,18.35982 -11.08073,39.75522 -4.51368,59.33398 6.56704,19.57876 20.76647,35.66336 39.37891,44.60938 l -5.25,10.92187 c -16.8637,-8.1055 -30.60447,-21.27997 -39.42969,-37.48828 l -2.4082,1.31055 c -6.82819,-12.52274 -10.80664,-26.82478 -11.07422,-42.03711 l 2.71484,-0.0508 c -0.25971,-14.50812 3.04035,-29.00183 9.8086,-42.146488 z"
           transform="translate(190.64648,401.95435)"
           id="path4174"
           inkscape:connector-curvature="0" />
        <circle
           r="44.071392"
           cy="538.43359"
           cx="694.42859"
           id="circle4176"
           style="opacity:1;fill:none;fill-opacity:1;fill-rule:evenodd;stroke:#c6c6c6;stroke-width:2.01706886;stroke-linecap:butt;stroke-linejoin:miter;stroke-miterlimit:2;stroke-dasharray:none;stroke-dashoffset:0;stroke-opacity:1" />
      </g>
    </g>
    <g
       id="g4417"
       transform="translate(225.4806,0)">
      <g
         id="g4461">
        <path
           style="fill:#000000;fill-opacity:1;fill-rule:evenodd;stroke:none;stroke-width:1px;stroke-linecap:butt;stroke-linejoin:miter;stroke-opacity:1"
           d="m 946.5,101.54883 c 0,0 -5.96646,11.27321 -11.29688,21.34765 l 1.82618,3.48047 0.004,-0.002 -0.002,0.004 -10.00977,19.07421 -2.71289,0.79688 -14.30078,27.24805 L 908.29883,174 c -6.09841,11.69491 -10.59206,20.44727 -10.36719,20.44727 -0.10615,0 0.73113,-0.27006 2.13086,-0.70118 2.22697,-4.20153 4.9406,-9.32126 5.24805,-9.90039 l 1.33203,-0.39258 c -0.0843,0.15886 -2.90951,5.48569 -5.24219,9.88672 0.60711,-0.18454 1.49817,-0.44963 2.24414,-0.67382 0.57724,-1.08803 2.28082,-4.30189 2.39844,-4.52344 l 1.33398,-0.39258 c -0.0123,0.0231 -1.83886,3.47007 -2.39257,4.51367 0.75198,-0.22496 1.21508,-0.36812 2.05859,-0.61914 3.21655,-6.07085 6.14685,-11.59749 6.52539,-12.31055 l 1.33008,-0.39257 c -0.101,0.19024 -3.1056,5.85521 -6.52539,12.31054 4.24624,-1.26121 9.54102,-2.81861 14.69336,-4.33398 l 0.53125,-0.79297 1.0332,-1.54688 4.58008,-6.85351 1.42187,0 -4.34375,6.49805 2.79688,-0.82227 4.07422,-6.0957 0.0234,0 1.05469,-1.58008 c -6.27553,-4.7972 -8.97393,-13.02059 -6.64258,-20.65039 2.4429,-7.9949 9.82576,-13.45899 18.18555,-13.45899 l 0,0.91602 c -7.96044,0 -14.98238,5.19757 -17.30859,12.81055 -2.21431,7.24674 0.3327,15.04882 6.27539,19.62109 l 3.39453,-5.08008 c 1.97025,1.62662 4.44958,2.62088 7.10937,2.73828 3.25041,0.14347 6.34795,-1.04001 8.65625,-3.16211 l 3.35157,5.43946 6.40625,10.41015 30.51367,9.3711 -10.25391,-20.03125 0.01,0 -0.0137,-0.0273 -3.21485,-0.94531 -0.01,-0.0176 -0.006,0 -2.89063,-5.65039 -6.13281,-1.80078 -4.14649,-8.10156 0.006,0.002 -11.96093,-23.37109 1.14648,0.33594 11.96289,23.37304 4.97852,1.46289 -11.96094,-23.37109 1.24023,0.36523 14.4961,28.32227 1.98047,0.58203 -16.02149,-31.30078 -0.0156,0 -16.873,-32.95711 z m 4.24023,44.69336 c 5.89319,2.03054 9.96025,7.46858 10.24415,13.69531 0.14799,3.24613 -0.76869,6.35718 -2.4668,8.9668 l -1.91992,-3.11914 c 2.66843,-5.59699 0.62139,-12.40233 -4.81836,-15.54297 l -0.74805,1.29883 c -0.57518,-0.33155 -1.1837,-0.61781 -1.82813,-0.83985 l 1.53711,-4.45898 z m -4.95898,0.39843 0,2.01563 c -4.27953,0 -8.22937,2.28209 -10.36914,5.98828 l -1.74609,-1.00976 c 2.49845,-4.32745 7.11833,-6.99415 12.11523,-6.99415 z m -0.0332,5.54493 a 8.4463882,8.4463882 0 0 1 0.0332,0 l 0,4.52148 0,1.19922 0,1.01758 c 0.69347,0 1.31275,0.41401 1.57813,1.05469 0.26538,0.64068 0.11925,1.36902 -0.3711,1.85937 -0.49036,0.49036 -1.21869,0.63451 -1.85937,0.36914 -0.54408,-0.22536 -0.90583,-0.70936 -1.00782,-1.27344 l 0.70703,-1.05859 -2.75,0 -3.46874,5.19141 a 8.4463882,8.4463882 0 0 1 -1.27344,-4.43555 8.4463882,8.4463882 0 0 1 2.24414,-5.71484 l 0.004,0.002 c 0.42215,-0.45793 0.89383,-0.86862 1.40625,-1.22266 l -0.002,-0.002 a 8.4463882,8.4463882 0 0 1 4.75977,-1.50781 z m -14.02344,2.61523 2.97851,1.23438 c -1.14322,2.75779 -1.24892,5.90107 -0.16015,8.80664 0.22771,0.6077 0.50578,1.18584 0.82226,1.73632 l -1.94531,2.91211 c -3.02468,-4.22314 -3.73177,-9.77861 -1.69531,-14.68945 z m 17.83594,6.8418 4.36718,1.16992 a 8.4463882,8.4463882 0 0 1 -1.93359,3.52734 l 0.043,0.0703 -0.006,0 0.79492,1.29101 c -1.94458,1.93758 -4.63954,3.02987 -7.48437,2.9043 -2.28773,-0.10098 -4.40919,-0.97859 -6.07227,-2.41016 l 2.06055,-3.08203 -0.004,0 1.38086,-2.06445 c 0.40774,0.5192 0.93964,0.94418 1.57422,1.20703 1.46324,0.6061 3.15548,0.27031 4.27539,-0.84961 0.49739,-0.49739 0.82968,-1.11027 1.00391,-1.76367 z"
           transform="translate(190.64648,377.80198)"
           id="path4782"
           inkscape:connector-curvature="0" />
        <path
           style="opacity:1;fill:#000000;fill-opacity:1;fill-rule:evenodd;stroke:none;stroke-width:2.01706886;stroke-linecap:butt;stroke-linejoin:miter;stroke-miterlimit:2;stroke-dasharray:none;stroke-dashoffset:0;stroke-opacity:1"
           d="m 1118.7285,377.80201 -17.6914,28.83789 c -33.0917,8.89274 -62.144,30.05611 -80.6543,59.95898 l 11.7656,7.2832 c -8.0401,12.94776 -13.7434,27.49316 -16.5019,43.04883 l 7.8066,1.39063 c 9.5198,-53.74883 56.5108,-94.625 112.9746,-94.625 36.9003,0 69.7401,17.4687 90.7344,44.56836 l -5.7324,4.3125 c -19.6605,-25.35034 -50.4045,-41.66407 -85.002,-41.66407 -52.9928,0 -96.9733,38.24988 -105.873,88.67188 l 11.5566,2.05664 c -5.3617,30.11944 3.9631,60.95011 25.1211,83.04688 l -8.4785,8.11914 c 19.5661,20.42986 47.1218,33.14453 77.6738,33.14453 21.0474,0 40.6615,-6.05072 57.2325,-16.48438 l -17.0801,-27.16992 c 1.5718,-0.9882 3.1069,-2.03527 4.6015,-3.13672 l 23.3125,31.63867 c -2.2733,1.67526 -4.6073,3.26652 -6.998,4.76953 l -0.01,-0.0137 c -17.6888,11.15087 -38.6244,17.61328 -61.0606,17.61328 -32.5564,0 -61.9622,-13.59164 -82.8535,-35.40234 l -5.7168,5.47461 c 4.5169,4.71568 9.4116,9.06575 14.625,13.01562 l -12.4336,20.26563 32.8301,20.13867 13.6328,-22.22265 c 1.6902,0.58275 3.3986,1.12664 5.1211,1.63671 l -26.0429,42.45313 32.8281,20.13867 35.4551,-57.79687 c 2.1669,-0.13047 4.3177,-0.31655 6.4531,-0.5586 l -51.6231,84.15039 32.8301,20.13867 63.1465,-102.93554 c 26.1844,-12.37722 47.8233,-32.81043 61.6621,-58.41016 l -12.0098,-6.49219 c 9.4144,-17.35523 14.7657,-37.22635 14.7657,-58.33007 0,-3.72137 -0.1764,-7.40138 -0.502,-11.03907 l 7.2656,-0.74609 -0.1543,-1.5 c -2.4178,-23.53081 -11.2138,-45.95669 -25.4373,-64.85739 l -0.9062,-1.20703 -1.2051,0.9082 -4.6602,3.50586 c -3.6086,-4.6649 -7.5507,-9.05756 -11.7812,-13.1543 l 9.9668,-16.24609 -32.8281,-20.13867 -8.7188,14.21093 c -1.5079,-0.73686 -3.0384,-1.43319 -4.5801,-2.10937 l 17.252,-28.11914 -32.8301,-20.13867 -23.5508,38.39062 c -1.9427,-0.15759 -3.9008,-0.25725 -5.8672,-0.32617 l 10.9981,-17.92578 -32.8301,-20.13867 z m 17.2461,80.35742 c 15.4529,-0.0826 30.6835,4.3097 43.7695,12.69531 l 5.1504,-8.03516 1.3243,-2.0664 0.3027,-0.47461 c 9.8907,6.33951 18.3682,14.42112 25.1054,23.73047 l 24.1426,-17.47071 c -0.1525,-0.21026 -0.3012,-0.42356 -0.4551,-0.63281 l 0.018,-0.0137 c 0.1541,0.21018 0.3023,0.4237 0.455,0.63477 l 3.1035,-2.2461 c 12.5842,17.38838 20.5368,37.69406 23.1075,59.00391 l -33.4121,4.03125 c 2.0964,17.37523 -0.7772,34.84124 -8.0762,50.44726 l 13.3379,6.23829 c 6.475,-13.83336 10.0996,-29.27308 10.0996,-45.56836 0,-3.19897 -0.1521,-6.36192 -0.4297,-9.48829 l 7.1777,-0.73828 c 0.3028,3.36997 0.4707,6.77849 0.4707,10.22657 0,19.74568 -5.0005,38.33286 -13.8008,54.56445 l -6.3222,-3.41602 -4.9414,-2.67187 -8.0196,-4.33399 c -2.9298,5.42005 -6.4072,10.58074 -10.4238,15.38672 l -0.039,-0.0312 -2.2754,-1.90234 -9.6426,-8.05664 c 3.318,-3.96995 6.2299,-8.26258 8.6895,-12.81446 l 0,0.002 c 15.395,-28.48947 11.3919,-63.54177 -10.0293,-87.82813 -21.4232,-24.28855 -55.7056,-32.63752 -85.8965,-20.91601 l -1.0918,-2.8125 c 7.8401,-3.04388 15.946,-4.7846 24.0449,-5.28906 1.5186,-0.0946 3.0367,-0.1462 4.5528,-0.1543 z m 93.0059,12.51172 c 0,0.004 0.01,0.008 0.01,0.0117 l -1.4688,1.08593 1.459,-1.09765 z m -92.5528,3.76367 a 63.998219,63.998219 0 0 1 64,63.99805 63.998219,63.998219 0 0 1 -64,63.99804 63.998219,63.998219 0 0 1 -63.998,-63.99804 63.998219,63.998219 0 0 1 63.998,-63.99805 z m -78.7695,23.43945 10.7734,5.54688 c -9.4535,18.35982 -11.0807,39.75522 -4.5136,59.33398 6.567,19.57876 20.7664,35.66336 39.3789,44.60938 l -5.25,10.92187 c -16.8637,-8.1055 -30.6045,-21.27997 -39.4297,-37.48828 l -2.4082,1.31055 c -6.8282,-12.52274 -10.8067,-26.82478 -11.0742,-42.03711 l 2.7148,-0.0508 c -0.2597,-14.50812 3.0403,-29.00183 9.8086,-42.14649 z"
           id="path4299"
           inkscape:connector-curvature="0" />
        <circle
           r="45.071377"
           cy="538.43359"
           cx="1136.4286"
           id="circle4301"
           style="opacity:1;fill:none;fill-opacity:1;fill-rule:evenodd;stroke:#c6c6c6;stroke-width:2.01706886;stroke-linecap:butt;stroke-linejoin:miter;stroke-miterlimit:2;stroke-dasharray:none;stroke-dashoffset:0;stroke-opacity:1" />
      </g>
    </g>
    <g
       id="g3376">
      <g
         id="g4478"
         transform="translate(1381.7205,0)">
        <g
           id="g4480">
          <g
             id="g4488">
            <path
               inkscape:connector-curvature="0"
               id="path4482"
               transform="translate(190.64648,377.80198)"
               d="m 946.5,101.54883 c 0,0 -5.96646,11.27321 -11.29688,21.34765 l 1.82618,3.48047 0.004,-0.002 -0.002,0.004 -10.00977,19.07421 -2.71289,0.79688 -14.30078,27.24805 L 908.29883,174 c -6.09841,11.69491 -10.59206,20.44727 -10.36719,20.44727 -0.10615,0 0.73113,-0.27006 2.13086,-0.70118 2.22697,-4.20153 4.9406,-9.32126 5.24805,-9.90039 l 1.33203,-0.39258 c -0.0843,0.15886 -2.90951,5.48569 -5.24219,9.88672 0.60711,-0.18454 1.49817,-0.44963 2.24414,-0.67382 0.57724,-1.08803 2.28082,-4.30189 2.39844,-4.52344 l 1.33398,-0.39258 c -0.0123,0.0231 -1.83886,3.47007 -2.39257,4.51367 0.75198,-0.22496 1.21508,-0.36812 2.05859,-0.61914 3.21655,-6.07085 6.14685,-11.59749 6.52539,-12.31055 l 1.33008,-0.39257 c -0.101,0.19024 -3.1056,5.85521 -6.52539,12.31054 4.24624,-1.26121 9.54102,-2.81861 14.69336,-4.33398 l 0.53125,-0.79297 1.0332,-1.54688 4.58008,-6.85351 1.42187,0 -4.34375,6.49805 2.79688,-0.82227 4.07422,-6.0957 0.0234,0 1.05469,-1.58008 c -6.27553,-4.7972 -8.97393,-13.02059 -6.64258,-20.65039 2.4429,-7.9949 9.82576,-13.45899 18.18555,-13.45899 l 0,0.91602 c -7.96044,0 -14.98238,5.19757 -17.30859,12.81055 -2.21431,7.24674 0.3327,15.04882 6.27539,19.62109 l 3.39453,-5.08008 c 1.97025,1.62662 4.44958,2.62088 7.10937,2.73828 3.25041,0.14347 6.34795,-1.04001 8.65625,-3.16211 l 3.35157,5.43946 6.40625,10.41015 30.51367,9.3711 -10.25391,-20.03125 0.01,0 -0.0137,-0.0273 -3.21485,-0.94531 -0.01,-0.0176 -0.006,0 -2.89063,-5.65039 -6.13281,-1.80078 -4.14649,-8.10156 0.006,0.002 -11.96093,-23.37109 1.14648,0.33594 11.96289,23.37304 4.97852,1.46289 -11.96094,-23.37109 1.24023,0.36523 14.4961,28.32227 1.98047,0.58203 -16.02149,-31.30078 -0.0156,0 -16.873,-32.95711 z m 4.24023,44.69336 c 5.89319,2.03054 9.96025,7.46858 10.24415,13.69531 0.14799,3.24613 -0.76869,6.35718 -2.4668,8.9668 l -1.91992,-3.11914 c 2.66843,-5.59699 0.62139,-12.40233 -4.81836,-15.54297 l -0.74805,1.29883 c -0.57518,-0.33155 -1.1837,-0.61781 -1.82813,-0.83985 l 1.53711,-4.45898 z m -4.95898,0.39843 0,2.01563 c -4.27953,0 -8.22937,2.28209 -10.36914,5.98828 l -1.74609,-1.00976 c 2.49845,-4.32745 7.11833,-6.99415 12.11523,-6.99415 z m -0.0332,5.54493 a 8.4463882,8.4463882 0 0 1 0.0332,0 l 0,4.52148 0,1.19922 0,1.01758 c 0.69347,0 1.31275,0.41401 1.57813,1.05469 0.26538,0.64068 0.11925,1.36902 -0.3711,1.85937 -0.49036,0.49036 -1.21869,0.63451 -1.85937,0.36914 -0.54408,-0.22536 -0.90583,-0.70936 -1.00782,-1.27344 l 0.70703,-1.05859 -2.75,0 -3.46874,5.19141 a 8.4463882,8.4463882 0 0 1 -1.27344,-4.43555 8.4463882,8.4463882 0 0 1 2.24414,-5.71484 l 0.004,0.002 c 0.42215,-0.45793 0.89383,-0.86862 1.40625,-1.22266 l -0.002,-0.002 a 8.4463882,8.4463882 0 0 1 4.75977,-1.50781 z m -14.02344,2.61523 2.97851,1.23438 c -1.14322,2.75779 -1.24892,5.90107 -0.16015,8.80664 0.22771,0.6077 0.50578,1.18584 0.82226,1.73632 l -1.94531,2.91211 c -3.02468,-4.22314 -3.73177,-9.77861 -1.69531,-14.68945 z m 17.83594,6.8418 4.36718,1.16992 a 8.4463882,8.4463882 0 0 1 -1.93359,3.52734 l 0.043,0.0703 -0.006,0 0.79492,1.29101 c -1.94458,1.93758 -4.63954,3.02987 -7.48437,2.9043 -2.28773,-0.10098 -4.40919,-0.97859 -6.07227,-2.41016 l 2.06055,-3.08203 -0.004,0 1.38086,-2.06445 c 0.40774,0.5192 0.93964,0.94418 1.57422,1.20703 1.46324,0.6061 3.15548,0.27031 4.27539,-0.84961 0.49739,-0.49739 0.82968,-1.11027 1.00391,-1.76367 z"
               style="fill:#000000;fill-opacity:1;fill-rule:evenodd;stroke:none;stroke-width:1px;stroke-linecap:butt;stroke-linejoin:miter;stroke-opacity:1" />
            <path
               inkscape:connector-curvature="0"
               id="path4484"
               d="m 1118.7285,377.80201 -17.6914,28.83789 c -33.0917,8.89274 -62.144,30.05611 -80.6543,59.95898 l 11.7656,7.2832 c -8.0401,12.94776 -13.7434,27.49316 -16.5019,43.04883 l 7.8066,1.39063 c 9.5198,-53.74883 56.5108,-94.625 112.9746,-94.625 36.9003,0 69.7401,17.4687 90.7344,44.56836 l -5.7324,4.3125 c -19.6605,-25.35034 -50.4045,-41.66407 -85.002,-41.66407 -52.9928,0 -96.9733,38.24988 -105.873,88.67188 l 11.5566,2.05664 c -5.3617,30.11944 3.9631,60.95011 25.1211,83.04688 l -8.4785,8.11914 c 19.5661,20.42986 47.1218,33.14453 77.6738,33.14453 21.0474,0 40.6615,-6.05072 57.2325,-16.48438 l -17.0801,-27.16992 c 1.5718,-0.9882 3.1069,-2.03527 4.6015,-3.13672 l 23.3125,31.63867 c -2.2733,1.67526 -4.6073,3.26652 -6.998,4.76953 l -0.01,-0.0137 c -17.6888,11.15087 -38.6244,17.61328 -61.0606,17.61328 -32.5564,0 -61.9622,-13.59164 -82.8535,-35.40234 l -5.7168,5.47461 c 4.5169,4.71568 9.4116,9.06575 14.625,13.01562 l -12.4336,20.26563 32.8301,20.13867 13.6328,-22.22265 c 1.6902,0.58275 3.3986,1.12664 5.1211,1.63671 l -26.0429,42.45313 32.8281,20.13867 35.4551,-57.79687 c 2.1669,-0.13047 4.3177,-0.31655 6.4531,-0.5586 l -51.6231,84.15039 32.8301,20.13867 63.1465,-102.93554 c 26.1844,-12.37722 47.8233,-32.81043 61.6621,-58.41016 l -12.0098,-6.49219 c 9.4144,-17.35523 14.7657,-37.22635 14.7657,-58.33007 0,-3.72137 -0.1764,-7.40138 -0.502,-11.03907 l 7.2656,-0.74609 -0.1543,-1.5 c -2.4178,-23.53081 -11.2138,-45.95669 -25.4373,-64.85739 l -0.9062,-1.20703 -1.2051,0.9082 -4.6602,3.50586 c -3.6086,-4.6649 -7.5507,-9.05756 -11.7812,-13.1543 l 9.9668,-16.24609 -32.8281,-20.13867 -8.7188,14.21093 c -1.5079,-0.73686 -3.0384,-1.43319 -4.5801,-2.10937 l 17.252,-28.11914 -32.8301,-20.13867 -23.5508,38.39062 c -1.9427,-0.15759 -3.9008,-0.25725 -5.8672,-0.32617 l 10.9981,-17.92578 -32.8301,-20.13867 z m 17.2461,80.35742 c 15.4529,-0.0826 30.6835,4.3097 43.7695,12.69531 l 5.1504,-8.03516 1.3243,-2.0664 0.3027,-0.47461 c 9.8907,6.33951 18.3682,14.42112 25.1054,23.73047 l 24.1426,-17.47071 c -0.1525,-0.21026 -0.3012,-0.42356 -0.4551,-0.63281 l 0.018,-0.0137 c 0.1541,0.21018 0.3023,0.4237 0.455,0.63477 l 3.1035,-2.2461 c 12.5842,17.38838 20.5368,37.69406 23.1075,59.00391 l -33.4121,4.03125 c 2.0964,17.37523 -0.7772,34.84124 -8.0762,50.44726 l 13.3379,6.23829 c 6.475,-13.83336 10.0996,-29.27308 10.0996,-45.56836 0,-3.19897 -0.1521,-6.36192 -0.4297,-9.48829 l 7.1777,-0.73828 c 0.3028,3.36997 0.4707,6.77849 0.4707,10.22657 0,19.74568 -5.0005,38.33286 -13.8008,54.56445 l -6.3222,-3.41602 -4.9414,-2.67187 -8.0196,-4.33399 c -2.9298,5.42005 -6.4072,10.58074 -10.4238,15.38672 l -0.039,-0.0312 -2.2754,-1.90234 -9.6426,-8.05664 c 3.318,-3.96995 6.2299,-8.26258 8.6895,-12.81446 l 0,0.002 c 15.395,-28.48947 11.3919,-63.54177 -10.0293,-87.82813 -21.4232,-24.28855 -55.7056,-32.63752 -85.8965,-20.91601 l -1.0918,-2.8125 c 7.8401,-3.04388 15.946,-4.7846 24.0449,-5.28906 1.5186,-0.0946 3.0367,-0.1462 4.5528,-0.1543 z m 93.0059,12.51172 c 0,0.004 0.01,0.008 0.01,0.0117 l -1.4688,1.08593 1.459,-1.09765 z m -92.5528,3.76367 a 63.998219,63.998219 0 0 1 64,63.99805 63.998219,63.998219 0 0 1 -64,63.99804 63.998219,63.998219 0 0 1 -63.998,-63.99804 63.998219,63.998219 0 0 1 63.998,-63.99805 z m -78.7695,23.43945 10.7734,5.54688 c -9.4535,18.35982 -11.0807,39.75522 -4.5136,59.33398 6.567,19.57876 20.7664,35.66336 39.3789,44.60938 l -5.25,10.92187 c -16.8637,-8.1055 -30.6045,-21.27997 -39.4297,-37.48828 l -2.4082,1.31055 c -6.8282,-12.52274 -10.8067,-26.82478 -11.0742,-42.03711 l 2.7148,-0.0508 c -0.2597,-14.50812 3.0403,-29.00183 9.8086,-42.14649 z"
               style="opacity:1;fill:#000000;fill-opacity:1;fill-rule:evenodd;stroke:none;stroke-width:2.01706886;stroke-linecap:butt;stroke-linejoin:miter;stroke-miterlimit:2;stroke-dasharray:none;stroke-dashoffset:0;stroke-opacity:1" />
          </g>
        </g>
      </g>
      <flowRoot
         transform="translate(76.187357,377.81249)"
         style="font-style:normal;font-variant:normal;font-weight:normal;font-stretch:normal;font-size:34.99999619px;line-height:100%;font-family:'Liberation Serif';-inkscape-font-specification:'Liberation Serif, Normal';text-align:start;letter-spacing:0px;word-spacing:0px;writing-mode:lr-tb;text-anchor:start;fill:#000000;fill-opacity:1;stroke:none;stroke-width:1px;stroke-linecap:butt;stroke-linejoin:miter;stroke-opacity:1"
         id="flowRoot4492"
         xml:space="preserve"><flowRegion
           id="flowRegion4494"><rect
             style="font-style:normal;font-variant:normal;font-weight:normal;font-stretch:normal;font-size:34.99999619px;line-height:100%;font-family:'Liberation Serif';-inkscape-font-specification:'Liberation Serif, Normal';text-align:start;writing-mode:lr-tb;text-anchor:start"
             y="230.82106"
             x="1926.1589"
             height="123.19597"
             width="947.84473"
             id="rect4496" /></flowRegion><flowPara
           id="flowPara4498">ARCH IN THE SHELL</flowPara></flowRoot>      <flowRoot
         xml:space="preserve"
         id="flowRoot4500"
         style="font-style:normal;font-variant:normal;font-weight:bold;font-stretch:normal;font-size:139.99998474px;line-height:100%;font-family:'Liberation Serif';-inkscape-font-specification:'Liberation Serif, Bold';text-align:start;letter-spacing:0px;word-spacing:0px;writing-mode:lr-tb;text-anchor:start;fill:#000000;fill-opacity:1;stroke:none;stroke-width:1px;stroke-linecap:butt;stroke-linejoin:miter;stroke-opacity:1"
         transform="matrix(1.2801524,0,0,1.2801524,202.65347,163.82487)"><flowRegion
           id="flowRegion4502"><rect
             id="rect4504"
             width="1279.301"
             height="123.19597"
             x="1926.1589"
             y="230.82106"
             style="font-style:normal;font-variant:normal;font-weight:bold;font-stretch:normal;font-size:139.99998474px;line-height:100%;font-family:'Liberation Serif';-inkscape-font-specification:'Liberation Serif, Bold';text-align:start;writing-mode:lr-tb;text-anchor:start" /></flowRegion><flowPara
           id="flowPara4506">THE ARCH WAY</flowPara></flowRoot>      <flowRoot
         xml:space="preserve"
         id="flowRoot4516"
         style="font-style:normal;font-variant:normal;font-weight:normal;font-stretch:normal;font-size:34.99999619px;line-height:100%;font-family:'Liberation Serif';-inkscape-font-specification:'Liberation Serif, Normal';text-align:start;letter-spacing:0px;word-spacing:0px;writing-mode:lr-tb;text-anchor:start;fill:#000000;fill-opacity:1;stroke:none;stroke-width:1px;stroke-linecap:butt;stroke-linejoin:miter;stroke-opacity:1"
         transform="translate(1219.7277,377.81249)"><flowRegion
           id="flowRegion4518"><rect
             id="rect4520"
             width="1097.8447"
             height="109.19597"
             x="1926.1589"
             y="230.82106"
             style="font-style:normal;font-variant:normal;font-weight:normal;font-stretch:normal;font-size:34.99999619px;line-height:100%;font-family:'Liberation Serif';-inkscape-font-specification:'Liberation Serif, Normal';text-align:start;writing-mode:lr-tb;text-anchor:start" /></flowRegion><flowPara
           id="flowPara4522">&quot;KEEP IT SIMPLE, STUPID&quot;</flowPara></flowRoot>      <flowRoot
         transform="translate(247.54635,429.11802)"
         style="font-style:normal;font-variant:normal;font-weight:500;font-stretch:normal;font-size:59.99999237px;line-height:100%;font-family:'WenQuanYi Zen Hei';-inkscape-font-specification:'WenQuanYi Zen Hei, Medium';text-align:start;letter-spacing:0px;word-spacing:0px;writing-mode:lr-tb;text-anchor:start;fill:#000000;fill-opacity:1;stroke:none;stroke-width:1px;stroke-linecap:butt;stroke-linejoin:miter;stroke-opacity:1"
         id="flowRoot4524"
         xml:space="preserve"><flowRegion
           id="flowRegion4526"><rect
             style="font-style:normal;font-variant:normal;font-weight:500;font-stretch:normal;font-size:59.99999237px;line-height:100%;font-family:'WenQuanYi Zen Hei';-inkscape-font-specification:'WenQuanYi Zen Hei, Medium';text-align:start;writing-mode:lr-tb;text-anchor:start"
             y="-12.201238"
             x="1820"
             height="94"
             width="610"
             id="rect4528" /></flowRegion><flowPara
           id="flowPara4530">弓兵機動隊</flowPara></flowRoot>      <g
         transform="matrix(1.2801524,0,0,1.2801524,-679.88168,-167.74465)"
         id="g4175">
        <flowRoot
           xml:space="preserve"
           id="flowRoot4508"
           style="font-style:normal;font-variant:normal;font-weight:bold;font-stretch:normal;font-size:139.99998474px;line-height:100%;font-family:'Liberation Serif';-inkscape-font-specification:'Liberation Serif, Bold';text-align:start;letter-spacing:0px;word-spacing:0px;writing-mode:lr-tb;text-anchor:start;fill:#000000;fill-opacity:1;stroke:none;stroke-width:1px;stroke-linecap:butt;stroke-linejoin:miter;stroke-opacity:1"
           transform="translate(128.81165,259.14456)"><flowRegion
             id="flowRegion4510"><rect
               id="rect4512"
               width="947.84473"
               height="123.19597"
               x="1926.1589"
               y="230.82106"
               style="font-style:normal;font-variant:normal;font-weight:bold;font-stretch:normal;font-size:139.99998474px;line-height:100%;font-family:'Liberation Serif';-inkscape-font-specification:'Liberation Serif, Bold';text-align:start;writing-mode:lr-tb;text-anchor:start" /></flowRegion><flowPara
             id="flowPara4514">K.I.S.</flowPara></flowRoot>        <flowRoot
           transform="translate(436.49147,270.42831)"
           style="font-style:normal;font-variant:normal;font-weight:bold;font-stretch:normal;font-size:39.99999619px;line-height:100%;font-family:'Liberation Serif';-inkscape-font-specification:'Liberation Serif, Bold';text-align:start;letter-spacing:0px;word-spacing:0px;writing-mode:lr-tb;text-anchor:start;fill:#000000;fill-opacity:1;stroke:none;stroke-width:1px;stroke-linecap:butt;stroke-linejoin:miter;stroke-opacity:1"
           id="flowRoot8476"
           xml:space="preserve"><flowRegion
             id="flowRegion8478"><rect
               style="font-style:normal;font-variant:normal;font-weight:bold;font-stretch:normal;font-size:39.99999619px;line-height:100%;font-family:'Liberation Serif';-inkscape-font-specification:'Liberation Serif, Bold';text-align:start;writing-mode:lr-tb;text-anchor:start"
               y="230.82106"
               x="1926.1589"
               height="123.19597"
               width="947.84473"
               id="rect8480" /></flowRegion><flowPara
             id="flowPara8482">2</flowPara></flowRoot>      </g>
    </g>
  </g>
</svg>
